<?xml version="1.0" encoding="UTF-8" standalone="no"?>
<!DOCTYPE svg PUBLIC "-//W3C//DTD SVG 1.1//EN"
 "http://www.w3.org/Graphics/SVG/1.1/DTD/svg11.dtd">
<!-- Generated by graphviz version 2.50.0 (20211204.2007)
 -->
<!-- Title: G Pages: 1 -->
<svg width="1488pt" height="836pt"
 viewBox="0.00 0.00 1488.49 836.00" xmlns="http://www.w3.org/2000/svg" xmlns:xlink="http://www.w3.org/1999/xlink">
<g id="graph0" class="graph" transform="scale(1 1) rotate(0) translate(4 832)">
<title>G</title>
<polygon fill="white" stroke="transparent" points="-4,4 -4,-832 1484.49,-832 1484.49,4 -4,4"/>
<!-- 0 -->
<g id="node1" class="node">
<title>0</title>
<ellipse fill="none" stroke="black" cx="302.25" cy="-810" rx="29.5" ry="18"/>
<text text-anchor="middle" x="302.25" y="-806.3" font-family="Times New Roman,serif" font-size="14.00">NOP</text>
</g>
<!-- 1 -->
<g id="node2" class="node">
<title>1</title>
<ellipse fill="none" stroke="black" cx="333.25" cy="-18" rx="29.5" ry="18"/>
<text text-anchor="middle" x="333.25" y="-14.3" font-family="Times New Roman,serif" font-size="14.00">NOP</text>
</g>
<!-- 2 -->
<g id="node3" class="node">
<title>2</title>
<ellipse fill="none" stroke="black" cx="447.25" cy="-90" rx="29.5" ry="18"/>
<text text-anchor="middle" x="447.25" y="-86.3" font-family="Times New Roman,serif" font-size="14.00">NOP</text>
</g>
<!-- 2&#45;&gt;1 -->
<g id="edge70" class="edge">
<title>2&#45;&gt;1</title>
<path fill="none" stroke="black" d="M427.13,-76.65C408.98,-65.5 382.08,-48.99 361.72,-36.49"/>
<polygon fill="black" stroke="black" points="363.52,-33.48 353.16,-31.23 359.86,-39.45 363.52,-33.48"/>
</g>
<!-- 3 -->
<g id="node4" class="node">
<title>3</title>
<ellipse fill="none" stroke="black" cx="789.25" cy="-162" rx="29.5" ry="18"/>
<text text-anchor="middle" x="789.25" y="-158.3" font-family="Times New Roman,serif" font-size="14.00">NOP</text>
</g>
<!-- 3&#45;&gt;2 -->
<g id="edge45" class="edge">
<title>3&#45;&gt;2</title>
<path fill="none" stroke="black" d="M761.84,-155.39C700.93,-142.92 554.24,-112.9 484.84,-98.69"/>
<polygon fill="black" stroke="black" points="485.29,-95.21 474.79,-96.64 483.88,-102.07 485.29,-95.21"/>
</g>
<!-- 4 -->
<g id="node5" class="node">
<title>4</title>
<ellipse fill="none" stroke="black" cx="1207.25" cy="-234" rx="29.5" ry="18"/>
<text text-anchor="middle" x="1207.25" y="-230.3" font-family="Times New Roman,serif" font-size="14.00">NOP</text>
</g>
<!-- 4&#45;&gt;3 -->
<g id="edge6" class="edge">
<title>4&#45;&gt;3</title>
<path fill="none" stroke="black" d="M1185.14,-221.85C1180.02,-219.63 1174.53,-217.52 1169.25,-216 1048.06,-181.2 898.34,-168.89 828.53,-164.83"/>
<polygon fill="black" stroke="black" points="828.6,-161.33 818.43,-164.27 828.22,-168.32 828.6,-161.33"/>
</g>
<!-- 59 -->
<g id="node60" class="node">
<title>59</title>
<ellipse fill="none" stroke="black" cx="1055.25" cy="-162" rx="29.5" ry="18"/>
<text text-anchor="middle" x="1055.25" y="-158.3" font-family="Times New Roman,serif" font-size="14.00">NOP</text>
</g>
<!-- 4&#45;&gt;59 -->
<g id="edge76" class="edge">
<title>4&#45;&gt;59</title>
<path fill="none" stroke="black" d="M1184.49,-222.52C1158.75,-210.66 1116.62,-191.26 1087.5,-177.85"/>
<polygon fill="black" stroke="black" points="1088.71,-174.56 1078.16,-173.55 1085.78,-180.91 1088.71,-174.56"/>
</g>
<!-- 5 -->
<g id="node6" class="node">
<title>5</title>
<ellipse fill="none" stroke="black" cx="1375.25" cy="-306" rx="29.5" ry="18"/>
<text text-anchor="middle" x="1375.25" y="-302.3" font-family="Times New Roman,serif" font-size="14.00">NOP</text>
</g>
<!-- 5&#45;&gt;4 -->
<g id="edge5" class="edge">
<title>5&#45;&gt;4</title>
<path fill="none" stroke="black" d="M1351.53,-295.12C1322.52,-283.03 1273.21,-262.49 1240.44,-248.83"/>
<polygon fill="black" stroke="black" points="1241.42,-245.45 1230.84,-244.83 1238.73,-251.91 1241.42,-245.45"/>
</g>
<!-- 6 -->
<g id="node7" class="node">
<title>6</title>
<ellipse fill="none" stroke="black" cx="1375.25" cy="-378" rx="29.5" ry="18"/>
<text text-anchor="middle" x="1375.25" y="-374.3" font-family="Times New Roman,serif" font-size="14.00">NOP</text>
</g>
<!-- 6&#45;&gt;5 -->
<g id="edge2" class="edge">
<title>6&#45;&gt;5</title>
<path fill="none" stroke="black" d="M1375.25,-359.7C1375.25,-351.98 1375.25,-342.71 1375.25,-334.11"/>
<polygon fill="black" stroke="black" points="1378.75,-334.1 1375.25,-324.1 1371.75,-334.1 1378.75,-334.1"/>
</g>
<!-- 7 -->
<g id="node8" class="node">
<title>7</title>
<ellipse fill="none" stroke="black" cx="1375.25" cy="-450" rx="29.5" ry="18"/>
<text text-anchor="middle" x="1375.25" y="-446.3" font-family="Times New Roman,serif" font-size="14.00">NOP</text>
</g>
<!-- 7&#45;&gt;6 -->
<g id="edge1" class="edge">
<title>7&#45;&gt;6</title>
<path fill="none" stroke="black" d="M1375.25,-431.7C1375.25,-423.98 1375.25,-414.71 1375.25,-406.11"/>
<polygon fill="black" stroke="black" points="1378.75,-406.1 1375.25,-396.1 1371.75,-406.1 1378.75,-406.1"/>
</g>
<!-- 8 -->
<g id="node9" class="node">
<title>8</title>
<ellipse fill="none" stroke="black" cx="1451.25" cy="-378" rx="29.5" ry="18"/>
<text text-anchor="middle" x="1451.25" y="-374.3" font-family="Times New Roman,serif" font-size="14.00">NOP</text>
</g>
<!-- 8&#45;&gt;5 -->
<g id="edge4" class="edge">
<title>8&#45;&gt;5</title>
<path fill="none" stroke="black" d="M1435.5,-362.5C1424.8,-352.64 1410.47,-339.44 1398.46,-328.38"/>
<polygon fill="black" stroke="black" points="1400.7,-325.69 1390.97,-321.49 1395.96,-330.83 1400.7,-325.69"/>
</g>
<!-- 9 -->
<g id="node10" class="node">
<title>9</title>
<ellipse fill="none" stroke="black" cx="1451.25" cy="-450" rx="29.5" ry="18"/>
<text text-anchor="middle" x="1451.25" y="-446.3" font-family="Times New Roman,serif" font-size="14.00">NOP</text>
</g>
<!-- 9&#45;&gt;8 -->
<g id="edge3" class="edge">
<title>9&#45;&gt;8</title>
<path fill="none" stroke="black" d="M1451.25,-431.7C1451.25,-423.98 1451.25,-414.71 1451.25,-406.11"/>
<polygon fill="black" stroke="black" points="1454.75,-406.1 1451.25,-396.1 1447.75,-406.1 1454.75,-406.1"/>
</g>
<!-- 10 -->
<g id="node11" class="node">
<title>10</title>
<ellipse fill="none" stroke="black" cx="1055.25" cy="-234" rx="29.5" ry="18"/>
<text text-anchor="middle" x="1055.25" y="-230.3" font-family="Times New Roman,serif" font-size="14.00">NOP</text>
</g>
<!-- 10&#45;&gt;3 -->
<g id="edge12" class="edge">
<title>10&#45;&gt;3</title>
<path fill="none" stroke="black" d="M1033.03,-222.2C1027.92,-219.96 1022.45,-217.75 1017.25,-216 951.85,-194 872.92,-177.87 827.16,-169.5"/>
<polygon fill="black" stroke="black" points="827.56,-166.02 817.1,-167.69 826.32,-172.9 827.56,-166.02"/>
</g>
<!-- 10&#45;&gt;59 -->
<g id="edge77" class="edge">
<title>10&#45;&gt;59</title>
<path fill="none" stroke="black" d="M1055.25,-215.7C1055.25,-207.98 1055.25,-198.71 1055.25,-190.11"/>
<polygon fill="black" stroke="black" points="1058.75,-190.1 1055.25,-180.1 1051.75,-190.1 1058.75,-190.1"/>
</g>
<!-- 11 -->
<g id="node12" class="node">
<title>11</title>
<ellipse fill="none" stroke="black" cx="995.25" cy="-306" rx="29.5" ry="18"/>
<text text-anchor="middle" x="995.25" y="-302.3" font-family="Times New Roman,serif" font-size="14.00">NOP</text>
</g>
<!-- 11&#45;&gt;10 -->
<g id="edge11" class="edge">
<title>11&#45;&gt;10</title>
<path fill="none" stroke="black" d="M1008.27,-289.81C1016.29,-280.45 1026.72,-268.28 1035.72,-257.79"/>
<polygon fill="black" stroke="black" points="1038.4,-260.03 1042.25,-250.16 1033.09,-255.47 1038.4,-260.03"/>
</g>
<!-- 12 -->
<g id="node13" class="node">
<title>12</title>
<ellipse fill="none" stroke="black" cx="995.25" cy="-378" rx="29.5" ry="18"/>
<text text-anchor="middle" x="995.25" y="-374.3" font-family="Times New Roman,serif" font-size="14.00">NOP</text>
</g>
<!-- 12&#45;&gt;11 -->
<g id="edge8" class="edge">
<title>12&#45;&gt;11</title>
<path fill="none" stroke="black" d="M995.25,-359.7C995.25,-351.98 995.25,-342.71 995.25,-334.11"/>
<polygon fill="black" stroke="black" points="998.75,-334.1 995.25,-324.1 991.75,-334.1 998.75,-334.1"/>
</g>
<!-- 13 -->
<g id="node14" class="node">
<title>13</title>
<ellipse fill="none" stroke="black" cx="995.25" cy="-450" rx="29.5" ry="18"/>
<text text-anchor="middle" x="995.25" y="-446.3" font-family="Times New Roman,serif" font-size="14.00">NOP</text>
</g>
<!-- 13&#45;&gt;12 -->
<g id="edge7" class="edge">
<title>13&#45;&gt;12</title>
<path fill="none" stroke="black" d="M995.25,-431.7C995.25,-423.98 995.25,-414.71 995.25,-406.11"/>
<polygon fill="black" stroke="black" points="998.75,-406.1 995.25,-396.1 991.75,-406.1 998.75,-406.1"/>
</g>
<!-- 14 -->
<g id="node15" class="node">
<title>14</title>
<ellipse fill="none" stroke="black" cx="919.25" cy="-378" rx="29.5" ry="18"/>
<text text-anchor="middle" x="919.25" y="-374.3" font-family="Times New Roman,serif" font-size="14.00">NOP</text>
</g>
<!-- 14&#45;&gt;11 -->
<g id="edge10" class="edge">
<title>14&#45;&gt;11</title>
<path fill="none" stroke="black" d="M934.99,-362.5C945.69,-352.64 960.03,-339.44 972.03,-328.38"/>
<polygon fill="black" stroke="black" points="974.54,-330.83 979.52,-321.49 969.79,-325.69 974.54,-330.83"/>
</g>
<!-- 15 -->
<g id="node16" class="node">
<title>15</title>
<ellipse fill="none" stroke="black" cx="881.25" cy="-450" rx="29.5" ry="18"/>
<text text-anchor="middle" x="881.25" y="-446.3" font-family="Times New Roman,serif" font-size="14.00">NOP</text>
</g>
<!-- 15&#45;&gt;14 -->
<g id="edge9" class="edge">
<title>15&#45;&gt;14</title>
<path fill="none" stroke="black" d="M890.06,-432.76C894.6,-424.4 900.24,-414.02 905.35,-404.61"/>
<polygon fill="black" stroke="black" points="908.52,-406.09 910.22,-395.63 902.37,-402.75 908.52,-406.09"/>
</g>
<!-- 49 -->
<g id="node50" class="node">
<title>49</title>
<ellipse fill="none" stroke="black" cx="843.25" cy="-378" rx="29.5" ry="18"/>
<text text-anchor="middle" x="843.25" y="-374.3" font-family="Times New Roman,serif" font-size="14.00">NOP</text>
</g>
<!-- 15&#45;&gt;49 -->
<g id="edge51" class="edge">
<title>15&#45;&gt;49</title>
<path fill="none" stroke="black" d="M872.43,-432.76C867.9,-424.4 862.26,-414.02 857.15,-404.61"/>
<polygon fill="black" stroke="black" points="860.12,-402.75 852.28,-395.63 853.97,-406.09 860.12,-402.75"/>
</g>
<!-- 16 -->
<g id="node17" class="node">
<title>16</title>
<ellipse fill="none" stroke="black" cx="219.25" cy="-234" rx="29.5" ry="18"/>
<text text-anchor="middle" x="219.25" y="-230.3" font-family="Times New Roman,serif" font-size="14.00">NOP</text>
</g>
<!-- 16&#45;&gt;3 -->
<g id="edge20" class="edge">
<title>16&#45;&gt;3</title>
<path fill="none" stroke="black" d="M240.91,-221.87C246.14,-219.59 251.8,-217.45 257.25,-216 304.6,-203.4 635.78,-175.53 750.36,-166.15"/>
<polygon fill="black" stroke="black" points="750.75,-169.63 760.44,-165.33 750.19,-162.65 750.75,-169.63"/>
</g>
<!-- 60 -->
<g id="node61" class="node">
<title>60</title>
<ellipse fill="none" stroke="black" cx="419.25" cy="-162" rx="29.5" ry="18"/>
<text text-anchor="middle" x="419.25" y="-158.3" font-family="Times New Roman,serif" font-size="14.00">NOP</text>
</g>
<!-- 16&#45;&gt;60 -->
<g id="edge82" class="edge">
<title>16&#45;&gt;60</title>
<path fill="none" stroke="black" d="M241.99,-222.36C246.98,-220.16 252.26,-217.93 257.25,-216 269.28,-211.35 340.12,-188.44 384.04,-174.3"/>
<polygon fill="black" stroke="black" points="385.33,-177.57 393.78,-171.17 383.18,-170.9 385.33,-177.57"/>
</g>
<!-- 17 -->
<g id="node18" class="node">
<title>17</title>
<ellipse fill="none" stroke="black" cx="152.25" cy="-306" rx="29.5" ry="18"/>
<text text-anchor="middle" x="152.25" y="-302.3" font-family="Times New Roman,serif" font-size="14.00">NOP</text>
</g>
<!-- 17&#45;&gt;16 -->
<g id="edge19" class="edge">
<title>17&#45;&gt;16</title>
<path fill="none" stroke="black" d="M166.46,-290.15C175.61,-280.6 187.67,-267.99 197.95,-257.25"/>
<polygon fill="black" stroke="black" points="200.67,-259.47 205.06,-249.82 195.62,-254.63 200.67,-259.47"/>
</g>
<!-- 57 -->
<g id="node58" class="node">
<title>57</title>
<ellipse fill="none" stroke="black" cx="143.25" cy="-234" rx="29.5" ry="18"/>
<text text-anchor="middle" x="143.25" y="-230.3" font-family="Times New Roman,serif" font-size="14.00">NOP</text>
</g>
<!-- 17&#45;&gt;57 -->
<g id="edge66" class="edge">
<title>17&#45;&gt;57</title>
<path fill="none" stroke="black" d="M150.02,-287.7C149.03,-279.98 147.84,-270.71 146.73,-262.11"/>
<polygon fill="black" stroke="black" points="150.19,-261.58 145.45,-252.1 143.25,-262.47 150.19,-261.58"/>
</g>
<!-- 58 -->
<g id="node59" class="node">
<title>58</title>
<ellipse fill="none" stroke="black" cx="295.25" cy="-234" rx="29.5" ry="18"/>
<text text-anchor="middle" x="295.25" y="-230.3" font-family="Times New Roman,serif" font-size="14.00">NOP</text>
</g>
<!-- 17&#45;&gt;58 -->
<g id="edge72" class="edge">
<title>17&#45;&gt;58</title>
<path fill="none" stroke="black" d="M174.59,-294.06C198.62,-282.3 237.01,-263.51 264.02,-250.28"/>
<polygon fill="black" stroke="black" points="265.62,-253.4 273.06,-245.86 262.54,-247.11 265.62,-253.4"/>
</g>
<!-- 17&#45;&gt;60 -->
<g id="edge83" class="edge">
<title>17&#45;&gt;60</title>
<path fill="none" stroke="black" d="M135.18,-290.92C114.72,-272.37 85.51,-239.35 105.25,-216 139.97,-174.92 303.34,-165.67 379.71,-163.59"/>
<polygon fill="black" stroke="black" points="379.98,-167.09 389.89,-163.35 379.81,-160.09 379.98,-167.09"/>
</g>
<!-- 61 -->
<g id="node62" class="node">
<title>61</title>
<ellipse fill="none" stroke="black" cx="29.25" cy="-234" rx="29.5" ry="18"/>
<text text-anchor="middle" x="29.25" y="-230.3" font-family="Times New Roman,serif" font-size="14.00">NOP</text>
</g>
<!-- 17&#45;&gt;61 -->
<g id="edge87" class="edge">
<title>17&#45;&gt;61</title>
<path fill="none" stroke="black" d="M131.38,-293.13C111.5,-281.81 81.37,-264.66 58.98,-251.92"/>
<polygon fill="black" stroke="black" points="60.64,-248.84 50.22,-246.93 57.17,-254.92 60.64,-248.84"/>
</g>
<!-- 18 -->
<g id="node19" class="node">
<title>18</title>
<ellipse fill="none" stroke="black" cx="152.25" cy="-378" rx="29.5" ry="18"/>
<text text-anchor="middle" x="152.25" y="-374.3" font-family="Times New Roman,serif" font-size="14.00">NOP</text>
</g>
<!-- 18&#45;&gt;17 -->
<g id="edge15" class="edge">
<title>18&#45;&gt;17</title>
<path fill="none" stroke="black" d="M152.25,-359.7C152.25,-351.98 152.25,-342.71 152.25,-334.11"/>
<polygon fill="black" stroke="black" points="155.75,-334.1 152.25,-324.1 148.75,-334.1 155.75,-334.1"/>
</g>
<!-- 19 -->
<g id="node20" class="node">
<title>19</title>
<ellipse fill="none" stroke="black" cx="228.25" cy="-522" rx="29.5" ry="18"/>
<text text-anchor="middle" x="228.25" y="-518.3" font-family="Times New Roman,serif" font-size="14.00">NOP</text>
</g>
<!-- 19&#45;&gt;18 -->
<g id="edge14" class="edge">
<title>19&#45;&gt;18</title>
<path fill="none" stroke="black" d="M215.65,-505.37C207.75,-495.12 197.69,-481.22 190.25,-468 178.89,-447.84 168.76,-423.61 161.82,-405.52"/>
<polygon fill="black" stroke="black" points="165,-404.05 158.21,-395.92 158.45,-406.51 165,-404.05"/>
</g>
<!-- 22 -->
<g id="node23" class="node">
<title>22</title>
<ellipse fill="none" stroke="black" cx="228.25" cy="-450" rx="29.5" ry="18"/>
<text text-anchor="middle" x="228.25" y="-446.3" font-family="Times New Roman,serif" font-size="14.00">NOP</text>
</g>
<!-- 19&#45;&gt;22 -->
<g id="edge16" class="edge">
<title>19&#45;&gt;22</title>
<path fill="none" stroke="black" d="M228.25,-503.7C228.25,-495.98 228.25,-486.71 228.25,-478.11"/>
<polygon fill="black" stroke="black" points="231.75,-478.1 228.25,-468.1 224.75,-478.1 231.75,-478.1"/>
</g>
<!-- 20 -->
<g id="node21" class="node">
<title>20</title>
<ellipse fill="none" stroke="black" cx="378.25" cy="-810" rx="29.5" ry="18"/>
<text text-anchor="middle" x="378.25" y="-806.3" font-family="Times New Roman,serif" font-size="14.00">NOP</text>
</g>
<!-- 20&#45;&gt;19 -->
<g id="edge13" class="edge">
<title>20&#45;&gt;19</title>
<path fill="none" stroke="black" d="M364.37,-794C355.36,-783.79 343.75,-769.69 335.25,-756 291.33,-685.32 254.49,-593.62 237.82,-549.29"/>
<polygon fill="black" stroke="black" points="241.06,-547.98 234.29,-539.83 234.5,-550.42 241.06,-547.98"/>
</g>
<!-- 33 -->
<g id="node34" class="node">
<title>33</title>
<ellipse fill="none" stroke="black" cx="406.25" cy="-738" rx="29.5" ry="18"/>
<text text-anchor="middle" x="406.25" y="-734.3" font-family="Times New Roman,serif" font-size="14.00">NOP</text>
</g>
<!-- 20&#45;&gt;33 -->
<g id="edge27" class="edge">
<title>20&#45;&gt;33</title>
<path fill="none" stroke="black" d="M384.88,-792.41C388.11,-784.34 392.07,-774.43 395.71,-765.35"/>
<polygon fill="black" stroke="black" points="399,-766.54 399.46,-755.96 392.5,-763.94 399,-766.54"/>
</g>
<!-- 41 -->
<g id="node42" class="node">
<title>41</title>
<ellipse fill="none" stroke="black" cx="691.25" cy="-450" rx="29.5" ry="18"/>
<text text-anchor="middle" x="691.25" y="-446.3" font-family="Times New Roman,serif" font-size="14.00">NOP</text>
</g>
<!-- 20&#45;&gt;41 -->
<g id="edge41" class="edge">
<title>20&#45;&gt;41</title>
<path fill="none" stroke="black" d="M398.31,-796.74C441.47,-769.65 539.25,-704.18 539.25,-667 539.25,-667 539.25,-667 539.25,-593 539.25,-528.57 613.07,-484.98 657.82,-464.47"/>
<polygon fill="black" stroke="black" points="659.44,-467.58 667.16,-460.33 656.6,-461.18 659.44,-467.58"/>
</g>
<!-- 44 -->
<g id="node45" class="node">
<title>44</title>
<ellipse fill="none" stroke="black" cx="349.25" cy="-306" rx="29.5" ry="18"/>
<text text-anchor="middle" x="349.25" y="-302.3" font-family="Times New Roman,serif" font-size="14.00">NOP</text>
</g>
<!-- 20&#45;&gt;44 -->
<g id="edge46" class="edge">
<title>20&#45;&gt;44</title>
<path fill="none" stroke="black" d="M372.52,-792.18C364.07,-765.82 349.25,-713.05 349.25,-667 349.25,-667 349.25,-667 349.25,-449 349.25,-409 349.25,-362.65 349.25,-334.08"/>
<polygon fill="black" stroke="black" points="352.75,-334.05 349.25,-324.05 345.75,-334.05 352.75,-334.05"/>
</g>
<!-- 21 -->
<g id="node22" class="node">
<title>21</title>
<ellipse fill="none" stroke="black" cx="228.25" cy="-378" rx="29.5" ry="18"/>
<text text-anchor="middle" x="228.25" y="-374.3" font-family="Times New Roman,serif" font-size="14.00">NOP</text>
</g>
<!-- 21&#45;&gt;17 -->
<g id="edge18" class="edge">
<title>21&#45;&gt;17</title>
<path fill="none" stroke="black" d="M212.5,-362.5C201.8,-352.64 187.47,-339.44 175.46,-328.38"/>
<polygon fill="black" stroke="black" points="177.7,-325.69 167.97,-321.49 172.96,-330.83 177.7,-325.69"/>
</g>
<!-- 22&#45;&gt;21 -->
<g id="edge17" class="edge">
<title>22&#45;&gt;21</title>
<path fill="none" stroke="black" d="M228.25,-431.7C228.25,-423.98 228.25,-414.71 228.25,-406.11"/>
<polygon fill="black" stroke="black" points="231.75,-406.1 228.25,-396.1 224.75,-406.1 231.75,-406.1"/>
</g>
<!-- 23 -->
<g id="node24" class="node">
<title>23</title>
<ellipse fill="none" stroke="black" cx="1131.25" cy="-234" rx="29.5" ry="18"/>
<text text-anchor="middle" x="1131.25" y="-230.3" font-family="Times New Roman,serif" font-size="14.00">NOP</text>
</g>
<!-- 23&#45;&gt;3 -->
<g id="edge26" class="edge">
<title>23&#45;&gt;3</title>
<path fill="none" stroke="black" d="M1109.1,-221.99C1103.98,-219.76 1098.5,-217.61 1093.25,-216 1000.64,-187.69 887.26,-172.94 828.6,-166.71"/>
<polygon fill="black" stroke="black" points="828.61,-163.19 818.3,-165.64 827.89,-170.15 828.61,-163.19"/>
</g>
<!-- 23&#45;&gt;59 -->
<g id="edge79" class="edge">
<title>23&#45;&gt;59</title>
<path fill="none" stroke="black" d="M1115.5,-218.5C1104.8,-208.64 1090.47,-195.44 1078.46,-184.38"/>
<polygon fill="black" stroke="black" points="1080.7,-181.69 1070.97,-177.49 1075.96,-186.83 1080.7,-181.69"/>
</g>
<!-- 24 -->
<g id="node25" class="node">
<title>24</title>
<ellipse fill="none" stroke="black" cx="1223.25" cy="-306" rx="29.5" ry="18"/>
<text text-anchor="middle" x="1223.25" y="-302.3" font-family="Times New Roman,serif" font-size="14.00">NOP</text>
</g>
<!-- 24&#45;&gt;23 -->
<g id="edge25" class="edge">
<title>24&#45;&gt;23</title>
<path fill="none" stroke="black" d="M1205.51,-291.5C1191.76,-281.04 1172.52,-266.4 1157.07,-254.65"/>
<polygon fill="black" stroke="black" points="1159.01,-251.73 1148.93,-248.46 1154.77,-257.3 1159.01,-251.73"/>
</g>
<!-- 25 -->
<g id="node26" class="node">
<title>25</title>
<ellipse fill="none" stroke="black" cx="1299.25" cy="-378" rx="29.5" ry="18"/>
<text text-anchor="middle" x="1299.25" y="-374.3" font-family="Times New Roman,serif" font-size="14.00">NOP</text>
</g>
<!-- 25&#45;&gt;24 -->
<g id="edge22" class="edge">
<title>25&#45;&gt;24</title>
<path fill="none" stroke="black" d="M1283.5,-362.5C1272.8,-352.64 1258.47,-339.44 1246.46,-328.38"/>
<polygon fill="black" stroke="black" points="1248.7,-325.69 1238.97,-321.49 1243.96,-330.83 1248.7,-325.69"/>
</g>
<!-- 26 -->
<g id="node27" class="node">
<title>26</title>
<ellipse fill="none" stroke="black" cx="1299.25" cy="-450" rx="29.5" ry="18"/>
<text text-anchor="middle" x="1299.25" y="-446.3" font-family="Times New Roman,serif" font-size="14.00">NOP</text>
</g>
<!-- 26&#45;&gt;25 -->
<g id="edge21" class="edge">
<title>26&#45;&gt;25</title>
<path fill="none" stroke="black" d="M1299.25,-431.7C1299.25,-423.98 1299.25,-414.71 1299.25,-406.11"/>
<polygon fill="black" stroke="black" points="1302.75,-406.1 1299.25,-396.1 1295.75,-406.1 1302.75,-406.1"/>
</g>
<!-- 27 -->
<g id="node28" class="node">
<title>27</title>
<ellipse fill="none" stroke="black" cx="1223.25" cy="-378" rx="29.5" ry="18"/>
<text text-anchor="middle" x="1223.25" y="-374.3" font-family="Times New Roman,serif" font-size="14.00">NOP</text>
</g>
<!-- 27&#45;&gt;24 -->
<g id="edge24" class="edge">
<title>27&#45;&gt;24</title>
<path fill="none" stroke="black" d="M1223.25,-359.7C1223.25,-351.98 1223.25,-342.71 1223.25,-334.11"/>
<polygon fill="black" stroke="black" points="1226.75,-334.1 1223.25,-324.1 1219.75,-334.1 1226.75,-334.1"/>
</g>
<!-- 28 -->
<g id="node29" class="node">
<title>28</title>
<ellipse fill="none" stroke="black" cx="1185.25" cy="-450" rx="29.5" ry="18"/>
<text text-anchor="middle" x="1185.25" y="-446.3" font-family="Times New Roman,serif" font-size="14.00">NOP</text>
</g>
<!-- 28&#45;&gt;27 -->
<g id="edge23" class="edge">
<title>28&#45;&gt;27</title>
<path fill="none" stroke="black" d="M1194.06,-432.76C1198.6,-424.4 1204.24,-414.02 1209.35,-404.61"/>
<polygon fill="black" stroke="black" points="1212.52,-406.09 1214.22,-395.63 1206.37,-402.75 1212.52,-406.09"/>
</g>
<!-- 54 -->
<g id="node55" class="node">
<title>54</title>
<ellipse fill="none" stroke="black" cx="1147.25" cy="-378" rx="29.5" ry="18"/>
<text text-anchor="middle" x="1147.25" y="-374.3" font-family="Times New Roman,serif" font-size="14.00">NOP</text>
</g>
<!-- 28&#45;&gt;54 -->
<g id="edge57" class="edge">
<title>28&#45;&gt;54</title>
<path fill="none" stroke="black" d="M1176.43,-432.76C1171.9,-424.4 1166.26,-414.02 1161.15,-404.61"/>
<polygon fill="black" stroke="black" points="1164.12,-402.75 1156.28,-395.63 1157.97,-406.09 1164.12,-402.75"/>
</g>
<!-- 29 -->
<g id="node30" class="node">
<title>29</title>
<ellipse fill="none" stroke="black" cx="447.25" cy="-306" rx="29.5" ry="18"/>
<text text-anchor="middle" x="447.25" y="-302.3" font-family="Times New Roman,serif" font-size="14.00">NOP</text>
</g>
<!-- 29&#45;&gt;3 -->
<g id="edge38" class="edge">
<title>29&#45;&gt;3</title>
<path fill="none" stroke="black" d="M476.59,-305.26C528.08,-304.45 636.48,-297.02 713.25,-252 727.45,-243.67 754.14,-210.21 771.81,-186.78"/>
<polygon fill="black" stroke="black" points="774.68,-188.77 777.87,-178.67 769.08,-184.58 774.68,-188.77"/>
</g>
<!-- 55 -->
<g id="node56" class="node">
<title>55</title>
<ellipse fill="none" stroke="black" cx="447.25" cy="-234" rx="29.5" ry="18"/>
<text text-anchor="middle" x="447.25" y="-230.3" font-family="Times New Roman,serif" font-size="14.00">NOP</text>
</g>
<!-- 29&#45;&gt;55 -->
<g id="edge61" class="edge">
<title>29&#45;&gt;55</title>
<path fill="none" stroke="black" d="M447.25,-287.7C447.25,-279.98 447.25,-270.71 447.25,-262.11"/>
<polygon fill="black" stroke="black" points="450.75,-262.1 447.25,-252.1 443.75,-262.1 450.75,-262.1"/>
</g>
<!-- 29&#45;&gt;57 -->
<g id="edge67" class="edge">
<title>29&#45;&gt;57</title>
<path fill="none" stroke="black" d="M421.7,-297.13C411.11,-294.04 398.65,-290.6 387.25,-288 296.64,-267.3 270.13,-279.19 181.25,-252 179.11,-251.35 176.94,-250.6 174.77,-249.8"/>
<polygon fill="black" stroke="black" points="175.98,-246.52 165.4,-246.01 173.36,-253.01 175.98,-246.52"/>
</g>
<!-- 29&#45;&gt;58 -->
<g id="edge73" class="edge">
<title>29&#45;&gt;58</title>
<path fill="none" stroke="black" d="M424.49,-294.52C398.75,-282.66 356.62,-263.26 327.5,-249.85"/>
<polygon fill="black" stroke="black" points="328.71,-246.56 318.16,-245.55 325.78,-252.91 328.71,-246.56"/>
</g>
<!-- 62 -->
<g id="node63" class="node">
<title>62</title>
<ellipse fill="none" stroke="black" cx="523.25" cy="-234" rx="29.5" ry="18"/>
<text text-anchor="middle" x="523.25" y="-230.3" font-family="Times New Roman,serif" font-size="14.00">NOP</text>
</g>
<!-- 29&#45;&gt;62 -->
<g id="edge88" class="edge">
<title>29&#45;&gt;62</title>
<path fill="none" stroke="black" d="M462.99,-290.5C473.69,-280.64 488.03,-267.44 500.03,-256.38"/>
<polygon fill="black" stroke="black" points="502.54,-258.83 507.52,-249.49 497.79,-253.69 502.54,-258.83"/>
</g>
<!-- 30 -->
<g id="node31" class="node">
<title>30</title>
<ellipse fill="none" stroke="black" cx="406.25" cy="-450" rx="29.5" ry="18"/>
<text text-anchor="middle" x="406.25" y="-446.3" font-family="Times New Roman,serif" font-size="14.00">NOP</text>
</g>
<!-- 30&#45;&gt;29 -->
<g id="edge34" class="edge">
<title>30&#45;&gt;29</title>
<path fill="none" stroke="black" d="M411.11,-432.15C418.14,-407.81 431.2,-362.57 439.55,-333.67"/>
<polygon fill="black" stroke="black" points="442.98,-334.4 442.39,-323.82 436.25,-332.46 442.98,-334.4"/>
</g>
<!-- 31 -->
<g id="node32" class="node">
<title>31</title>
<ellipse fill="none" stroke="black" cx="482.25" cy="-522" rx="29.5" ry="18"/>
<text text-anchor="middle" x="482.25" y="-518.3" font-family="Times New Roman,serif" font-size="14.00">NOP</text>
</g>
<!-- 31&#45;&gt;30 -->
<g id="edge33" class="edge">
<title>31&#45;&gt;30</title>
<path fill="none" stroke="black" d="M466.5,-506.5C455.8,-496.64 441.47,-483.44 429.46,-472.38"/>
<polygon fill="black" stroke="black" points="431.7,-469.69 421.97,-465.49 426.96,-474.83 431.7,-469.69"/>
</g>
<!-- 37 -->
<g id="node38" class="node">
<title>37</title>
<ellipse fill="none" stroke="black" cx="482.25" cy="-450" rx="29.5" ry="18"/>
<text text-anchor="middle" x="482.25" y="-446.3" font-family="Times New Roman,serif" font-size="14.00">NOP</text>
</g>
<!-- 31&#45;&gt;37 -->
<g id="edge35" class="edge">
<title>31&#45;&gt;37</title>
<path fill="none" stroke="black" d="M482.25,-503.7C482.25,-495.98 482.25,-486.71 482.25,-478.11"/>
<polygon fill="black" stroke="black" points="485.75,-478.1 482.25,-468.1 478.75,-478.1 485.75,-478.1"/>
</g>
<!-- 38 -->
<g id="node39" class="node">
<title>38</title>
<ellipse fill="none" stroke="black" cx="675.25" cy="-234" rx="29.5" ry="18"/>
<text text-anchor="middle" x="675.25" y="-230.3" font-family="Times New Roman,serif" font-size="14.00">NOP</text>
</g>
<!-- 31&#45;&gt;38 -->
<g id="edge39" class="edge">
<title>31&#45;&gt;38</title>
<path fill="none" stroke="black" d="M505.74,-511.25C537.18,-498.03 589.76,-475.23 596.25,-468 650.1,-407.98 667.49,-309.76 672.91,-262.33"/>
<polygon fill="black" stroke="black" points="676.41,-262.53 673.97,-252.22 669.44,-261.8 676.41,-262.53"/>
</g>
<!-- 31&#45;&gt;57 -->
<g id="edge68" class="edge">
<title>31&#45;&gt;57</title>
<path fill="none" stroke="black" d="M457.22,-512.51C433.09,-503.63 396.22,-488.17 368.25,-468 314.69,-429.39 312.07,-407.53 266.25,-360 231.2,-323.65 189.94,-281.94 165.23,-257.06"/>
<polygon fill="black" stroke="black" points="167.65,-254.53 158.12,-249.91 162.68,-259.47 167.65,-254.53"/>
</g>
<!-- 63 -->
<g id="node64" class="node">
<title>63</title>
<ellipse fill="none" stroke="black" cx="558.25" cy="-450" rx="29.5" ry="18"/>
<text text-anchor="middle" x="558.25" y="-446.3" font-family="Times New Roman,serif" font-size="14.00">NOP</text>
</g>
<!-- 31&#45;&gt;63 -->
<g id="edge89" class="edge">
<title>31&#45;&gt;63</title>
<path fill="none" stroke="black" d="M497.99,-506.5C508.69,-496.64 523.03,-483.44 535.03,-472.38"/>
<polygon fill="black" stroke="black" points="537.54,-474.83 542.52,-465.49 532.79,-469.69 537.54,-474.83"/>
</g>
<!-- 32 -->
<g id="node33" class="node">
<title>32</title>
<ellipse fill="none" stroke="black" cx="406.25" cy="-594" rx="29.5" ry="18"/>
<text text-anchor="middle" x="406.25" y="-590.3" font-family="Times New Roman,serif" font-size="14.00">NOP</text>
</g>
<!-- 32&#45;&gt;31 -->
<g id="edge29" class="edge">
<title>32&#45;&gt;31</title>
<path fill="none" stroke="black" d="M421.99,-578.5C432.69,-568.64 447.03,-555.44 459.03,-544.38"/>
<polygon fill="black" stroke="black" points="461.54,-546.83 466.52,-537.49 456.79,-541.69 461.54,-546.83"/>
</g>
<!-- 33&#45;&gt;32 -->
<g id="edge28" class="edge">
<title>33&#45;&gt;32</title>
<path fill="none" stroke="black" d="M406.25,-719.87C406.25,-695.67 406.25,-651.21 406.25,-622.39"/>
<polygon fill="black" stroke="black" points="409.75,-622.19 406.25,-612.19 402.75,-622.19 409.75,-622.19"/>
</g>
<!-- 35 -->
<g id="node36" class="node">
<title>35</title>
<ellipse fill="none" stroke="black" cx="473.25" cy="-666" rx="29.5" ry="18"/>
<text text-anchor="middle" x="473.25" y="-662.3" font-family="Times New Roman,serif" font-size="14.00">NOP</text>
</g>
<!-- 33&#45;&gt;35 -->
<g id="edge30" class="edge">
<title>33&#45;&gt;35</title>
<path fill="none" stroke="black" d="M420.46,-722.15C429.61,-712.6 441.67,-699.99 451.95,-689.25"/>
<polygon fill="black" stroke="black" points="454.67,-691.47 459.06,-681.82 449.62,-686.63 454.67,-691.47"/>
</g>
<!-- 34 -->
<g id="node35" class="node">
<title>34</title>
<ellipse fill="none" stroke="black" cx="482.25" cy="-594" rx="29.5" ry="18"/>
<text text-anchor="middle" x="482.25" y="-590.3" font-family="Times New Roman,serif" font-size="14.00">NOP</text>
</g>
<!-- 34&#45;&gt;31 -->
<g id="edge32" class="edge">
<title>34&#45;&gt;31</title>
<path fill="none" stroke="black" d="M482.25,-575.7C482.25,-567.98 482.25,-558.71 482.25,-550.11"/>
<polygon fill="black" stroke="black" points="485.75,-550.1 482.25,-540.1 478.75,-550.1 485.75,-550.1"/>
</g>
<!-- 35&#45;&gt;34 -->
<g id="edge31" class="edge">
<title>35&#45;&gt;34</title>
<path fill="none" stroke="black" d="M475.47,-647.7C476.46,-639.98 477.66,-630.71 478.76,-622.11"/>
<polygon fill="black" stroke="black" points="482.24,-622.47 480.05,-612.1 475.3,-621.58 482.24,-622.47"/>
</g>
<!-- 36 -->
<g id="node37" class="node">
<title>36</title>
<ellipse fill="none" stroke="black" cx="473.25" cy="-378" rx="29.5" ry="18"/>
<text text-anchor="middle" x="473.25" y="-374.3" font-family="Times New Roman,serif" font-size="14.00">NOP</text>
</g>
<!-- 36&#45;&gt;29 -->
<g id="edge37" class="edge">
<title>36&#45;&gt;29</title>
<path fill="none" stroke="black" d="M466.95,-360.05C463.98,-352.06 460.37,-342.33 457.05,-333.4"/>
<polygon fill="black" stroke="black" points="460.25,-331.94 453.48,-323.79 453.68,-334.38 460.25,-331.94"/>
</g>
<!-- 37&#45;&gt;36 -->
<g id="edge36" class="edge">
<title>37&#45;&gt;36</title>
<path fill="none" stroke="black" d="M480.02,-431.7C479.03,-423.98 477.84,-414.71 476.73,-406.11"/>
<polygon fill="black" stroke="black" points="480.19,-405.58 475.45,-396.1 473.25,-406.47 480.19,-405.58"/>
</g>
<!-- 38&#45;&gt;3 -->
<g id="edge40" class="edge">
<title>38&#45;&gt;3</title>
<path fill="none" stroke="black" d="M695.37,-220.65C713.52,-209.5 740.41,-192.99 760.77,-180.49"/>
<polygon fill="black" stroke="black" points="762.64,-183.45 769.33,-175.23 758.98,-177.48 762.64,-183.45"/>
</g>
<!-- 38&#45;&gt;60 -->
<g id="edge85" class="edge">
<title>38&#45;&gt;60</title>
<path fill="none" stroke="black" d="M653.01,-222.24C647.9,-220 642.44,-217.78 637.25,-216 620.17,-210.16 513.52,-184.99 455.97,-171.54"/>
<polygon fill="black" stroke="black" points="456.7,-168.12 446.17,-169.25 455.11,-174.94 456.7,-168.12"/>
</g>
<!-- 39 -->
<g id="node40" class="node">
<title>39</title>
<ellipse fill="none" stroke="black" cx="729.25" cy="-306" rx="29.5" ry="18"/>
<text text-anchor="middle" x="729.25" y="-302.3" font-family="Times New Roman,serif" font-size="14.00">NOP</text>
</g>
<!-- 39&#45;&gt;3 -->
<g id="edge44" class="edge">
<title>39&#45;&gt;3</title>
<path fill="none" stroke="black" d="M756.26,-298.65C779.63,-291.57 812,-277.59 827.25,-252 840,-230.6 825.23,-204.13 810.54,-185.64"/>
<polygon fill="black" stroke="black" points="813.02,-183.15 803.9,-177.76 807.67,-187.66 813.02,-183.15"/>
</g>
<!-- 39&#45;&gt;58 -->
<g id="edge74" class="edge">
<title>39&#45;&gt;58</title>
<path fill="none" stroke="black" d="M699.85,-303.94C633.33,-300.94 466.69,-289.92 333.25,-252 331.1,-251.39 328.92,-250.68 326.74,-249.9"/>
<polygon fill="black" stroke="black" points="327.94,-246.61 317.35,-246.17 325.35,-253.12 327.94,-246.61"/>
</g>
<!-- 64 -->
<g id="node65" class="node">
<title>64</title>
<ellipse fill="none" stroke="black" cx="789.25" cy="-234" rx="29.5" ry="18"/>
<text text-anchor="middle" x="789.25" y="-230.3" font-family="Times New Roman,serif" font-size="14.00">NOP</text>
</g>
<!-- 39&#45;&gt;64 -->
<g id="edge90" class="edge">
<title>39&#45;&gt;64</title>
<path fill="none" stroke="black" d="M742.27,-289.81C750.29,-280.45 760.72,-268.28 769.72,-257.79"/>
<polygon fill="black" stroke="black" points="772.4,-260.03 776.25,-250.16 767.09,-255.47 772.4,-260.03"/>
</g>
<!-- 40 -->
<g id="node41" class="node">
<title>40</title>
<ellipse fill="none" stroke="black" cx="691.25" cy="-378" rx="29.5" ry="18"/>
<text text-anchor="middle" x="691.25" y="-374.3" font-family="Times New Roman,serif" font-size="14.00">NOP</text>
</g>
<!-- 40&#45;&gt;39 -->
<g id="edge43" class="edge">
<title>40&#45;&gt;39</title>
<path fill="none" stroke="black" d="M700.06,-360.76C704.6,-352.4 710.24,-342.02 715.35,-332.61"/>
<polygon fill="black" stroke="black" points="718.52,-334.09 720.22,-323.63 712.37,-330.75 718.52,-334.09"/>
</g>
<!-- 41&#45;&gt;40 -->
<g id="edge42" class="edge">
<title>41&#45;&gt;40</title>
<path fill="none" stroke="black" d="M691.25,-431.7C691.25,-423.98 691.25,-414.71 691.25,-406.11"/>
<polygon fill="black" stroke="black" points="694.75,-406.1 691.25,-396.1 687.75,-406.1 694.75,-406.1"/>
</g>
<!-- 56 -->
<g id="node57" class="node">
<title>56</title>
<ellipse fill="none" stroke="black" cx="599.25" cy="-234" rx="29.5" ry="18"/>
<text text-anchor="middle" x="599.25" y="-230.3" font-family="Times New Roman,serif" font-size="14.00">NOP</text>
</g>
<!-- 41&#45;&gt;56 -->
<g id="edge63" class="edge">
<title>41&#45;&gt;56</title>
<path fill="none" stroke="black" d="M678.29,-433.56C670.24,-423.4 660.16,-409.51 653.25,-396 630.35,-351.24 614,-294.66 605.63,-261.88"/>
<polygon fill="black" stroke="black" points="609.01,-260.97 603.19,-252.12 602.22,-262.67 609.01,-260.97"/>
</g>
<!-- 42 -->
<g id="node43" class="node">
<title>42</title>
<ellipse fill="none" stroke="black" cx="533.25" cy="-162" rx="29.5" ry="18"/>
<text text-anchor="middle" x="533.25" y="-158.3" font-family="Times New Roman,serif" font-size="14.00">NOP</text>
</g>
<!-- 42&#45;&gt;2 -->
<g id="edge65" class="edge">
<title>42&#45;&gt;2</title>
<path fill="none" stroke="black" d="M516.26,-147.17C503.65,-136.91 486.27,-122.77 472.11,-111.24"/>
<polygon fill="black" stroke="black" points="474.17,-108.4 464.2,-104.8 469.75,-113.83 474.17,-108.4"/>
</g>
<!-- 43 -->
<g id="node44" class="node">
<title>43</title>
<ellipse fill="none" stroke="black" cx="371.25" cy="-234" rx="29.5" ry="18"/>
<text text-anchor="middle" x="371.25" y="-230.3" font-family="Times New Roman,serif" font-size="14.00">NOP</text>
</g>
<!-- 43&#45;&gt;42 -->
<g id="edge48" class="edge">
<title>43&#45;&gt;42</title>
<path fill="none" stroke="black" d="M394.13,-222.69C399.1,-220.47 404.35,-218.14 409.25,-216 440.11,-202.5 475.46,-187.43 500.5,-176.82"/>
<polygon fill="black" stroke="black" points="502.04,-179.97 509.89,-172.85 499.31,-173.52 502.04,-179.97"/>
</g>
<!-- 43&#45;&gt;60 -->
<g id="edge81" class="edge">
<title>43&#45;&gt;60</title>
<path fill="none" stroke="black" d="M382.14,-217.12C388.22,-208.26 395.91,-197.04 402.71,-187.12"/>
<polygon fill="black" stroke="black" points="405.63,-189.05 408.4,-178.82 399.86,-185.09 405.63,-189.05"/>
</g>
<!-- 44&#45;&gt;43 -->
<g id="edge47" class="edge">
<title>44&#45;&gt;43</title>
<path fill="none" stroke="black" d="M354.57,-288.05C357.09,-280.06 360.14,-270.33 362.95,-261.4"/>
<polygon fill="black" stroke="black" points="366.31,-262.38 365.97,-251.79 359.63,-260.28 366.31,-262.38"/>
</g>
<!-- 44&#45;&gt;58 -->
<g id="edge71" class="edge">
<title>44&#45;&gt;58</title>
<path fill="none" stroke="black" d="M337.26,-289.46C330.27,-280.4 321.31,-268.79 313.46,-258.61"/>
<polygon fill="black" stroke="black" points="316.08,-256.27 307.2,-250.49 310.54,-260.55 316.08,-256.27"/>
</g>
<!-- 45 -->
<g id="node46" class="node">
<title>45</title>
<ellipse fill="none" stroke="black" cx="903.25" cy="-234" rx="29.5" ry="18"/>
<text text-anchor="middle" x="903.25" y="-230.3" font-family="Times New Roman,serif" font-size="14.00">NOP</text>
</g>
<!-- 45&#45;&gt;42 -->
<g id="edge54" class="edge">
<title>45&#45;&gt;42</title>
<path fill="none" stroke="black" d="M876.22,-226.67C861.73,-223.34 843.55,-219.29 827.25,-216 735.79,-197.54 627.68,-178.85 571.49,-169.37"/>
<polygon fill="black" stroke="black" points="571.73,-165.86 561.29,-167.65 570.57,-172.77 571.73,-165.86"/>
</g>
<!-- 45&#45;&gt;59 -->
<g id="edge78" class="edge">
<title>45&#45;&gt;59</title>
<path fill="none" stroke="black" d="M926,-222.52C951.75,-210.66 993.87,-191.26 1023,-177.85"/>
<polygon fill="black" stroke="black" points="1024.72,-180.91 1032.34,-173.55 1021.79,-174.56 1024.72,-180.91"/>
</g>
<!-- 46 -->
<g id="node47" class="node">
<title>46</title>
<ellipse fill="none" stroke="black" cx="843.25" cy="-306" rx="29.5" ry="18"/>
<text text-anchor="middle" x="843.25" y="-302.3" font-family="Times New Roman,serif" font-size="14.00">NOP</text>
</g>
<!-- 46&#45;&gt;45 -->
<g id="edge53" class="edge">
<title>46&#45;&gt;45</title>
<path fill="none" stroke="black" d="M856.27,-289.81C864.29,-280.45 874.72,-268.28 883.72,-257.79"/>
<polygon fill="black" stroke="black" points="886.4,-260.03 890.25,-250.16 881.09,-255.47 886.4,-260.03"/>
</g>
<!-- 47 -->
<g id="node48" class="node">
<title>47</title>
<ellipse fill="none" stroke="black" cx="767.25" cy="-378" rx="29.5" ry="18"/>
<text text-anchor="middle" x="767.25" y="-374.3" font-family="Times New Roman,serif" font-size="14.00">NOP</text>
</g>
<!-- 47&#45;&gt;46 -->
<g id="edge50" class="edge">
<title>47&#45;&gt;46</title>
<path fill="none" stroke="black" d="M782.99,-362.5C793.69,-352.64 808.03,-339.44 820.03,-328.38"/>
<polygon fill="black" stroke="black" points="822.54,-330.83 827.52,-321.49 817.79,-325.69 822.54,-330.83"/>
</g>
<!-- 48 -->
<g id="node49" class="node">
<title>48</title>
<ellipse fill="none" stroke="black" cx="767.25" cy="-450" rx="29.5" ry="18"/>
<text text-anchor="middle" x="767.25" y="-446.3" font-family="Times New Roman,serif" font-size="14.00">NOP</text>
</g>
<!-- 48&#45;&gt;47 -->
<g id="edge49" class="edge">
<title>48&#45;&gt;47</title>
<path fill="none" stroke="black" d="M767.25,-431.7C767.25,-423.98 767.25,-414.71 767.25,-406.11"/>
<polygon fill="black" stroke="black" points="770.75,-406.1 767.25,-396.1 763.75,-406.1 770.75,-406.1"/>
</g>
<!-- 49&#45;&gt;46 -->
<g id="edge52" class="edge">
<title>49&#45;&gt;46</title>
<path fill="none" stroke="black" d="M843.25,-359.7C843.25,-351.98 843.25,-342.71 843.25,-334.11"/>
<polygon fill="black" stroke="black" points="846.75,-334.1 843.25,-324.1 839.75,-334.1 846.75,-334.1"/>
</g>
<!-- 50 -->
<g id="node51" class="node">
<title>50</title>
<ellipse fill="none" stroke="black" cx="979.25" cy="-234" rx="29.5" ry="18"/>
<text text-anchor="middle" x="979.25" y="-230.3" font-family="Times New Roman,serif" font-size="14.00">NOP</text>
</g>
<!-- 50&#45;&gt;42 -->
<g id="edge60" class="edge">
<title>50&#45;&gt;42</title>
<path fill="none" stroke="black" d="M957.15,-221.82C952.03,-219.6 946.53,-217.49 941.25,-216 872.13,-196.5 659.88,-174.94 571.99,-166.58"/>
<polygon fill="black" stroke="black" points="572.19,-163.08 561.9,-165.63 571.53,-170.05 572.19,-163.08"/>
</g>
<!-- 50&#45;&gt;59 -->
<g id="edge80" class="edge">
<title>50&#45;&gt;59</title>
<path fill="none" stroke="black" d="M994.99,-218.5C1005.69,-208.64 1020.03,-195.44 1032.03,-184.38"/>
<polygon fill="black" stroke="black" points="1034.54,-186.83 1039.52,-177.49 1029.79,-181.69 1034.54,-186.83"/>
</g>
<!-- 51 -->
<g id="node52" class="node">
<title>51</title>
<ellipse fill="none" stroke="black" cx="1071.25" cy="-306" rx="29.5" ry="18"/>
<text text-anchor="middle" x="1071.25" y="-302.3" font-family="Times New Roman,serif" font-size="14.00">NOP</text>
</g>
<!-- 51&#45;&gt;50 -->
<g id="edge59" class="edge">
<title>51&#45;&gt;50</title>
<path fill="none" stroke="black" d="M1053.51,-291.5C1039.76,-281.04 1020.52,-266.4 1005.07,-254.65"/>
<polygon fill="black" stroke="black" points="1007.01,-251.73 996.93,-248.46 1002.77,-257.3 1007.01,-251.73"/>
</g>
<!-- 52 -->
<g id="node53" class="node">
<title>52</title>
<ellipse fill="none" stroke="black" cx="1071.25" cy="-378" rx="29.5" ry="18"/>
<text text-anchor="middle" x="1071.25" y="-374.3" font-family="Times New Roman,serif" font-size="14.00">NOP</text>
</g>
<!-- 52&#45;&gt;51 -->
<g id="edge56" class="edge">
<title>52&#45;&gt;51</title>
<path fill="none" stroke="black" d="M1071.25,-359.7C1071.25,-351.98 1071.25,-342.71 1071.25,-334.11"/>
<polygon fill="black" stroke="black" points="1074.75,-334.1 1071.25,-324.1 1067.75,-334.1 1074.75,-334.1"/>
</g>
<!-- 53 -->
<g id="node54" class="node">
<title>53</title>
<ellipse fill="none" stroke="black" cx="1071.25" cy="-450" rx="29.5" ry="18"/>
<text text-anchor="middle" x="1071.25" y="-446.3" font-family="Times New Roman,serif" font-size="14.00">NOP</text>
</g>
<!-- 53&#45;&gt;52 -->
<g id="edge55" class="edge">
<title>53&#45;&gt;52</title>
<path fill="none" stroke="black" d="M1071.25,-431.7C1071.25,-423.98 1071.25,-414.71 1071.25,-406.11"/>
<polygon fill="black" stroke="black" points="1074.75,-406.1 1071.25,-396.1 1067.75,-406.1 1074.75,-406.1"/>
</g>
<!-- 54&#45;&gt;51 -->
<g id="edge58" class="edge">
<title>54&#45;&gt;51</title>
<path fill="none" stroke="black" d="M1131.5,-362.5C1120.8,-352.64 1106.47,-339.44 1094.46,-328.38"/>
<polygon fill="black" stroke="black" points="1096.7,-325.69 1086.97,-321.49 1091.96,-330.83 1096.7,-325.69"/>
</g>
<!-- 55&#45;&gt;42 -->
<g id="edge62" class="edge">
<title>55&#45;&gt;42</title>
<path fill="none" stroke="black" d="M464.24,-219.17C476.84,-208.91 494.22,-194.77 508.38,-183.24"/>
<polygon fill="black" stroke="black" points="510.75,-185.83 516.29,-176.8 506.33,-180.4 510.75,-185.83"/>
</g>
<!-- 55&#45;&gt;60 -->
<g id="edge84" class="edge">
<title>55&#45;&gt;60</title>
<path fill="none" stroke="black" d="M440.61,-216.41C437.38,-208.34 433.42,-198.43 429.79,-189.35"/>
<polygon fill="black" stroke="black" points="432.99,-187.94 426.03,-179.96 426.49,-190.54 432.99,-187.94"/>
</g>
<!-- 56&#45;&gt;42 -->
<g id="edge64" class="edge">
<title>56&#45;&gt;42</title>
<path fill="none" stroke="black" d="M585.25,-218.15C576.24,-208.6 564.36,-195.99 554.23,-185.25"/>
<polygon fill="black" stroke="black" points="556.63,-182.7 547.22,-177.82 551.54,-187.5 556.63,-182.7"/>
</g>
<!-- 56&#45;&gt;60 -->
<g id="edge86" class="edge">
<title>56&#45;&gt;60</title>
<path fill="none" stroke="black" d="M576.44,-222.52C571.46,-220.3 566.2,-218.03 561.25,-216 524.87,-201.09 482.6,-185.54 453.69,-175.16"/>
<polygon fill="black" stroke="black" points="454.65,-171.79 444.06,-171.72 452.3,-178.38 454.65,-171.79"/>
</g>
<!-- 57&#45;&gt;2 -->
<g id="edge69" class="edge">
<title>57&#45;&gt;2</title>
<path fill="none" stroke="black" d="M166.1,-222.33C219.7,-197.29 353.67,-134.71 415.3,-105.92"/>
<polygon fill="black" stroke="black" points="416.97,-109.01 424.55,-101.6 414.01,-102.66 416.97,-109.01"/>
</g>
<!-- 58&#45;&gt;1 -->
<g id="edge75" class="edge">
<title>58&#45;&gt;1</title>
<path fill="none" stroke="black" d="M298.29,-215.85C304.88,-178.74 320.51,-90.75 328.44,-46.05"/>
<polygon fill="black" stroke="black" points="331.94,-46.39 330.24,-35.94 325.05,-45.17 331.94,-46.39"/>
</g>
<!-- 65 -->
<g id="node66" class="node">
<title>65</title>
<ellipse fill="none" stroke="black" cx="454.25" cy="-810" rx="29.5" ry="18"/>
<text text-anchor="middle" x="454.25" y="-806.3" font-family="Times New Roman,serif" font-size="14.00">NOP</text>
</g>
</g>
</svg>
